# xmcd
#
# Track frame offsets:
#	150
#	14995
#	30539
#	44556
#	60963
#	77368
#	106208
#	120905
#	136427
#	157342
#	172231
#	189275
#	206092
#	219269
#	233796
#	260881
#	277261
#	291588
#	306853
#	323407
#	336958
#
# Disc length: 4752 seconds
#
# Revision: 0
# Processed by: cddbd v1.5.2PL0 Copyright (c) Steve Scherf et al.
# Submitted via: EasyCDDAExtractor 16.0.9.1
#
DISCID=40128e15
DTITLE=Various Artist - Club Rotation Vol.28
DYEAR=2004
DGENRE=Trance
TTITLE0=Scooter - Shake That! (Radio Edit)
TTITLE1=Danzel - Pump It Up! (Radio Edit)
TTITLE2=Commander Tom - Attention! (Original Radio Version)
TTITLE3=Novaspace - Dancing With Tears In My Eyes 2004 (Radio Edit)
TTITLE4=ATB  - Here With Me (Airplay Mix)
TTITLE5=Blank and Jones - Waiting For The Light (Kyau Vs. Albert Remix Edit)
TTITLE6=Tiësto - Just Be (Album Version)
TTITLE7=DJ Tatana - Elements Of Culture (Radio Edit)
TTITLE8=Ayu - Naturally (Wippenberg Remix Part 1 Radio Edit)
TTITLE9=Mario Lopez - You Play Me Like A Jojo (Armin and Friends Original Radio 
TTITLE9=Mix)
TTITLE10=Paul van Dyk and Peter Heppner - Wir Sind Wir (PvD Club Mix Short Cut)
TTITLE11=Cappella - U Got 2 Let The Music (DJ Shog Remix Edit)
TTITLE12=Kareema - Cool Your Engines (Radio Mix)
TTITLE13=Manyou - Take Me Home (Radio Mix)
TTITLE14=Michael Urgacz vs. Sean Tyas - 4 Corners (Video Mix)
TTITLE15=IIO - Smooth (Airbase Radio Mix)
TTITLE16=Gentle Child - The Child (Edit)
TTITLE17=Vaganzza - As I Fall Asleep (Screen Cut)
TTITLE18=Pedro Del Mar Meets Sasha Da Link - The Key (Vocal Mix Edit)
TTITLE19=Plummet - Cherish The Day (Antillas Remix Radio Edit)
TTITLE20=Randy Katana - In Silence (Txitxarro Mix Edit)
EXTD=
EXTT0=
EXTT1=
EXTT2=
EXTT3=
EXTT4=
EXTT5=
EXTT6=
EXTT7=
EXTT8=
EXTT9=
EXTT10=
EXTT11=
EXTT12=
EXTT13=
EXTT14=
EXTT15=
EXTT16=
EXTT17=
EXTT18=
EXTT19=
EXTT20=
PLAYORDER=
